<?xml version="1.0" encoding="UTF-8"?>
<svg id="Layer_1" data-name="Layer 1" xmlns="http://www.w3.org/2000/svg" viewBox="0 0 713.09 360.06">
  <defs>
    <style>
      .cls-1 {
        fill: #231f20;
      }
    </style>
  </defs>
  <g>
    <path class="cls-1" d="M113.59,320.95c-.36-1.82-.77-3.64-1-5.47-.67-5.22.3-10.44.18-15.66,0-.16.06-.31.09-.47.37-2.21.7-4.42.69-6.68,0-2.31-.1-4.62.13-6.93.1-1.01.06-2.04-.06-3.07-.31-2.76-.93-5.5-.48-8.32.26-1.61.43-3.24.4-4.72,0-1.86-.12-3.55-.39-5.23-.39-2.43-.96-4.81-1.73-7.15-.14-.41-.33-.84-.85-.65-.87.31-1.79.38-2.66.76-1.18.53-2.38,1.04-3.59,1.49-2.23.83-4.6,1.24-6.91,1.81-.69.17-.87-.06-1.16-.64-1.39-2.85-1.58-6.28-4.31-8.48-.98-.79-2.17-.8-2.62.4-.26.69-.91.54-1.39.77-.44.21-.66-.19-.87-.51-.96-1.48-1.85-2.99-2.64-4.57-.97-1.94-1.95-3.89-3.14-5.7-.75-1.14-1.47-2.24-1.63-3.6-.07-.61-.28-1.17-.47-1.73-.51-1.46-.93-2.95-1.23-4.47-.46-2.35-1.09-4.65-1.96-6.88-.72-1.86-1.38-3.73-1.85-5.68-.24-.97-.86-1.86-1.68-2.49-.7-.53-1.51-.66-2.41-.4-.64.19-1.24-.06-1.77-.51-.42-.37-.87-.71-1.35-1.01-1.51-.93-2.65,0-3.79.8-2.77,1.94-3.97,5.02-5.24,7.88-1.04,2.33-1.87,4.81-2.55,7.33-.72,2.63-1.84,5.15-2.74,7.73-.17.48-.44.9-.64,1.37-.44,1.06-.62,2.19-1.04,3.25-.82,2.05-1.98,3.98-2.39,6.18-.18.95-.83,1.57-1.5,2.16-1.73,1.5-2.81,3.32-2.94,5.64-.06,1.14-1.12,2.23-2.25,2.15-2.38-.18-4.77-.27-7.14-.62-2.65-.39-5.31-.68-7.93-1.26-.46-.1-1.19-.32-1.43.51-.23.82-.46,1.65-.73,2.46-.71,2.12-.49,4.37-.94,6.54-.49,2.4-1.23,4.78-1.01,7.28.03.33-.13.68-.24,1.01-1.49,4.7-2.3,9.5-2.29,14.44,0,1.47-.1,2.95-.23,4.41-.34,3.86-.75,7.71-1.08,11.57-.22,2.55-.33,5.12-.48,7.68-.18,2.95-.25,5.89.39,8.81.85,3.87,1.66,7.76,1.44,11.77-.09,1.73.03,3.47-.28,5.18-.21,1.16-.08,2.2.66,3.15.94,1.22,1.8,2.5,2.5,3.87.56,1.09,1.49,1.83,2.53,2.25,1.94.78,3.84,1.57,5.52,2.85.45.34,1.01.54,1.53.8,4.16,2.12,8.67,3.44,12.79,5.65.52.28.97.56,1.28,1.08.24.4.48.95,1,.95,1.37-.02,2.74.17,4.1-.25,4.57-1.41,9.02-3.23,13.76-4.07.76-.14,1.47-.42,2.17-.75,2.47-1.15,4.97-2.18,7.63-2.82,5.38-1.28,10.77-2.51,16.19-3.64,6.18-1.29,12.38-2.34,18.64-3.13,1.51-.19,3.22-1.14,2.93-3.3-.15-1.08-.13-2.18-.18-3.26-.15-2.93.24-5.83.46-8.73.18-2.31-.01-4.62.29-6.92.1-.72.03-1.47-.11-2.2ZM64.21,227.48c-.4,5.05-.57,10.1-.33,15.17.12,2.52-.08,5.06-.13,7.6-.02,1.16-.03,2.31.01,3.47.02.5-.17.62-.61.52-3.48-.77-6.97-.66-10.47-.09-1.38.23-2.79.42-4.23.12,6.19-8.87,11.33-18.2,15.57-28.21.22.6.21,1,.18,1.42ZM85.34,253.92c-1.21.78-2.5,1.24-3.94,1.33-2.46.16-4.92.37-7.39.51-.63.03-1.28-.06-1.91-.19-.53-.1-.85-.38-.83-1.06.05-2.56.43-5.09.58-7.63.17-2.78.34-5.57.39-8.36.06-3.53,0-7.06-.01-10.59,0-.12.02-.23.04-.52,1.84,3.18,3.59,6.19,4.89,9.42.13.32.4.58.58.87.42.67.91,1.28.97,2.13.08,1.25,1.19,1.97,1.7,3.02.62,1.31,1.28,2.6,1.81,3.94.59,1.49,1.58,2.77,2.16,4.27.28.73.7,1.42,1.14,2.07.28.4.22.52-.17.77Z"/>
    <g>
      <path class="cls-1" d="M66.39,211.21c-.68-.9-1.25-1.52-1.67-2.22-13.29-22.22-26.18-44.66-37.73-67.85-9.09-18.24-17.85-36.67-24.03-56.13C-8.61,48.52,14.94,8.94,52.45,1.38c33.1-6.67,64.94,11.39,76,43.18,2.08,5.98,3,12.17,3.41,18.52.84,13.08-3.21,25.02-7.77,36.89-9.02,23.47-20.43,45.8-32.55,67.77-7.56,13.71-15.53,27.21-23.33,40.79-.48.84-1.09,1.6-1.82,2.67h0ZM114.32,67.03c.02-26.58-21.71-48.52-48.11-48.57-26.96-.05-48.8,21.58-48.89,48.44-.09,27.11,21.64,48.83,48.88,48.84,26.52.02,48.09-21.83,48.12-48.72Z"/>
      <path class="cls-1" d="M102.09,65.43c0-2.18,0-4.36-.07-6.54-.04-1.35-.74-2.36-1.89-3.09-4.04-2.55-8.06-5.13-12.1-7.68-6.39-4.01-12.78-8.01-19.18-12-1.96-1.22-3.92-1.2-5.86.08-1.17.77-2.34,1.55-3.53,2.29-8.96,5.6-17.91,11.22-26.91,16.77-1.91,1.17-2.73,2.71-2.71,4.89.05,5,.02,9.99.02,14.98h0c0,5.04,0,10.08,0,15.12,0,2.79,1.25,4.03,4.07,4.04,8.6.02,17.19.04,25.79.04.54,0,1.07,0,1.62-.15,2.31-.69,3.8-2.95,3.81-5.95.01-7.4,0-14.8.01-22.2,0-.73-.28-1.84.78-1.86,1.21-.02.85,1.17.85,1.91.02,7.4,0,14.8.01,22.2,0,3.54,2.01,6.04,4.91,6.05,8.73.02,17.47,0,26.2-.05,3.03-.02,4.25-1.4,4.21-4.33-.09-8.17-.03-16.34-.04-24.51ZM62.53,86.17c-2.99-.56-5.54-3.87-5.33-6.93.04-.62.2-.75.8-.64,3.05.55,5.5,3.38,5.55,6.56.09.66.03,1.22-1.03,1.01ZM63.54,77.97c-.16.83-.63.61-1.09.49-2.48-.67-4.17-2.97-4.17-5.85,0-.12.02-.44.04-.75.05-.72.25-1.02,1.11-.76,2.92.89,4.69,3.83,4.11,6.87ZM64.04,70.02c-.24.68-.59.88-1.29.58-1.97-.83-3.24-2.77-3.16-4.93.11-.84-.05-1.99.77-2.32.84-.33,1.65.48,2.31,1.08,1.58,1.44,2.08,3.58,1.37,5.58ZM64.01,63.48c-1.11.23-2.02-1.03-2.53-2.11-.76-1.6-.66-3.18.29-4.73.36-.58.67-.63,1.19-.31,1.57.96,2.4,2.36,2.49,4.26-.2,1.1-.33,2.65-1.45,2.88ZM64.69,56.58c-1.5-1.58-.93-4.56.94-5.64.28-.16.45-.19.7.02.99.84,1.77,1.79,1.83,3.2-.08,1.22-.71,2.18-1.64,2.95-.83.68-1.47-.14-1.84-.53ZM68.81,56.43c.68-.46,1.04-.37,1.47.31.48.76.63,1.56.64,2.26.1,2.02-.77,3.33-2.28,4.33-.6.39-.9.33-1.29-.27-1.5-2.32-.9-5.03,1.46-6.62ZM68.05,70.31c-.28-.72-.49-1.44-.44-2.23.01-1.98,1.46-4.07,3.25-4.72.54-.2.88-.13,1.15.49,1.14,2.59-.36,5.94-3.05,6.83-.5.17-.73.1-.92-.37ZM72,71.26c1.45-.54,1.6-.45,1.66,1.11,0,.18,0,.36,0,.54,0,2.56-1.46,4.53-3.9,5.45-.95.36-1.29.3-1.41-.86-.26-2.43,1.05-5.28,3.65-6.25ZM69.39,86.15c-.95.22-1.01.12-.98-1.27.07-2.91,2.55-5.74,5.45-6.29.63-.12.87,0,.9.71.14,3.26-2.16,6.11-5.36,6.85Z"/>
    </g>
  </g>
  <g>
    <path class="cls-1" d="M170.44,119.33h-13.72V32.05h-6.38v-3.25h20.1v90.52ZM204.51,119.33h-13.72V47.46c0-3.85-1.4-7.26-4.21-10.23-2.81-2.97-6.18-4.65-10.11-5.06v87.15h-3.49V28.8h.84c7.46,0,13.12,2.81,16.97,8.43v-8.43h13.72v90.52ZM228.34,119.33h-3.49V48.18c0-4.09-1.37-7.68-4.09-10.77-2.73-3.09-6.14-4.83-10.23-5.24v87.15h-3.37V28.8h.84c5.7,0,10.51,1.81,14.45,5.42,3.93,3.61,5.9,8.27,5.9,13.96v71.14Z"/>
    <path class="cls-1" d="M249.41,108.73c-10.19-9.71-15.29-21.27-15.29-34.67s5.1-25.2,15.29-34.67v69.34ZM328.86,74.06c0,13.08-4.62,24.22-13.84,33.4-9.23,9.19-20.42,13.78-33.58,13.78-11.24,0-21.19-3.53-29.85-10.59V37.47c8.59-7.14,18.54-10.71,29.85-10.71,13.16,0,24.35,4.59,33.58,13.78,9.23,9.19,13.84,20.36,13.84,33.52ZM312.12,104.7c8.43-8.39,12.64-18.6,12.64-30.64s-4.21-22.25-12.64-30.64c-8.43-8.39-18.66-12.58-30.7-12.58-9.79,0-18.58,3.01-26.36,9.03v68.25c7.86,6.1,16.65,9.15,26.36,9.15,12.04,0,22.27-4.19,30.7-12.58Z"/>
    <path class="cls-1" d="M367.74,98.74l-7.46,21.91-31.54-91.85h15.05l23.95,69.94ZM391.57,28.8l-22.39,65.73-22.27-65.73h3.49l18.78,55.37,18.78-55.37h3.61Z"/>
    <path class="cls-1" d="M416.73,119.33h-13.84V32.05h-5.54v-3.25h19.38v90.52ZM451.04,119.33h-32.02V28.8h32.02v3.25h-28.53v17.21h22.27v3.37h-22.27v63.2h28.53v3.49Z"/>
    <path class="cls-1" d="M503.88,119.33h-3.61l-2.89-8.91h-31.18l-2.89,8.91h-3.61l3.01-8.91h-5.9v-3.25h6.98l18.06-53.45,22.03,65.6ZM496.18,107.17l-14.45-42.73-14.32,42.73h28.77ZM521.45,119.33h-13.96l-24.2-69.82,6.98-20.34,31.18,90.16Z"/>
    <path class="cls-1" d="M546.49,119.33h-13.72V32.05h-5.54v-3.25h19.26v90.52ZM594.4,84.42c0,9.63-3.43,17.86-10.29,24.68-6.86,6.82-15.11,10.23-24.74,10.23h-10.71V28.8h9.87c3.29,0,6.1,1.16,8.43,3.49,2.33,2.33,3.49,5.14,3.49,8.43,0,3.77-1.44,6.86-4.33,9.27,8.19,1.53,14.94,5.54,20.28,12.04,5.34,6.5,8.01,13.96,8.01,22.39ZM564.55,46.74c1.68-1.69,2.53-3.69,2.53-6.02s-.84-4.35-2.53-6.08c-1.69-1.72-3.69-2.59-6.02-2.59h-6.38v17.21h6.38c2.33,0,4.33-.84,6.02-2.53ZM591.03,84.42c0-8.83-3.09-16.33-9.27-22.51-6.18-6.18-13.64-9.27-22.39-9.27h-7.22v63.2h7.22c8.67,0,16.11-3.07,22.33-9.21,6.22-6.14,9.33-13.54,9.33-22.21Z"/>
    <path class="cls-1" d="M619.44,119.33h-13.72V32.05h-5.54v-3.25h19.26v90.52ZM653.62,119.33h-31.54V28.8h3.25v87.03h28.29v3.49Z"/>
    <path class="cls-1" d="M678.78,119.33h-13.84V32.05h-5.54v-3.25h19.38v90.52ZM713.09,119.33h-32.02V28.8h32.02v3.25h-28.53v17.21h22.27v3.37h-22.27v63.2h28.53v3.49Z"/>
  </g>
  <g>
    <path class="cls-1" d="M191.97,360.06h-29.66v-188.63h-11.97v-7.02h41.63v195.65ZM263.51,171.43h-59.06v37.2h48.39v7.28h-48.39v144.14h-7.28v-195.65h66.34v7.02Z"/>
    <path class="cls-1" d="M341.57,360.06h-7.81l-6.25-19.25h-67.38l-6.25,19.25h-7.81l6.5-19.25h-12.75v-7.03h15.09l39.03-115.52,47.61,141.8ZM324.91,333.78l-31.22-92.36-30.96,92.36h62.18ZM379.55,360.06h-30.18l-52.3-150.9,15.09-43.97,67.38,194.87Z"/>
    <path class="cls-1" d="M434.18,360.06h-30.7v-188.63h-11.45v-7.02h42.15v195.65ZM532.01,252.87c0,14.05-3.17,27.32-9.5,39.81-6.33,12.49-15.22,22.98-26.67,31.48l21.6,35.9h-8.59l-18.99-31.74c-13.36,7.98-27.67,12.4-42.93,13.27v18.47h-7.28v-195.65h3.64c24.46,0,45.35,8.63,62.7,25.89,17.34,17.26,26.02,38.12,26.02,62.57ZM501.96,309.07c15-15.78,22.5-34.51,22.5-56.2s-7.5-40.41-22.5-56.2c-15-15.78-33.35-24.11-55.03-24.98v162.35c21.68-.87,40.02-9.19,55.03-24.98Z"/>
    <path class="cls-1" d="M587.95,360.06h-29.66v-188.63h-13.79v-7.02h43.45v195.65ZM661.57,360.06h-29.66v-155.32c0-8.33-3.04-15.7-9.11-22.11-6.07-6.41-13.36-10.06-21.85-10.93v188.37h-7.54v-195.65h1.82c16.13,0,28.36,6.07,36.68,18.21v-18.21h29.66v195.65ZM713.09,360.06h-7.55v-153.76c0-8.85-2.95-16.61-8.85-23.29-5.9-6.68-13.27-10.45-22.11-11.32v188.37h-7.28v-195.65h1.82c12.31,0,22.72,3.9,31.22,11.71,8.5,7.81,12.75,17.87,12.75,30.18v153.76Z"/>
  </g>
</svg>